<?xml version="1.0" encoding="UTF-8"?>
<svg width="151px" height="214px" viewBox="0 0 151 214" version="1.1" xmlns="http://www.w3.org/2000/svg" xmlns:xlink="http://www.w3.org/1999/xlink">
    <title>19</title>
    <defs>
        <path d="M104.222735,0 L20.4741576,0 L20.4734105,28.553 L0,28.5531495 L0,138.367882 L11.5634105,138.367 L11.5634105,147.594 L0,147.594787 L0,188.310251 L51.9024105,188.31 L51.9034066,213.066841 L124.461111,213.066841 L124.46041,186.897 L149.313526,186.89779 L149.313526,100.741763 L124.46041,100.741 L124.461111,28.5531495 L104.22241,28.553 L104.222735,0 Z M100.222735,4 L100.222735,32.5531495 L120.461111,32.5531495 L120.461111,104.741763 L145.313526,104.741763 L145.313526,182.89779 L120.461111,182.89779 L120.461111,209.066841 L55.9034066,209.066841 L55.9034066,184.310251 L4,184.310251 L4,151.594787 L15.5637826,151.594787 L15.5637826,134.367882 L4,134.367882 L4,32.5531495 L24.4741576,32.5531495 L24.4741576,4 L100.222735,4 Z" id="path-1"></path>
    </defs>
    <g id="页面-1" stroke="none" stroke-width="1" fill="none" fill-rule="evenodd">
        <g id="6备份-5" transform="translate(-775.000000, -138.000000)">
            <g id="19" transform="translate(775.958940, 138.169771)">
                <g id="编组-19备份" transform="translate(0.005928, 0.000000)">
                    <g id="矩形">
                        <mask id="mask-2" fill="white">
                            <use xlink:href="#path-1"></use>
                        </mask>
                        <use id="蒙版" fill="#000000" fill-rule="nonzero" xlink:href="#path-1"></use>
                        <polygon fill="#FFFFFF" mask="url(#mask-2)" points="104.226395 26 120.493906 26 120.493906 36 104.226395 36"></polygon>
                    </g>
                    <line x1="2.06141045" y1="100.809244" x2="55.4378944" y2="100.809244" id="路径-166" stroke="#000000" stroke-width="4"></line>
                    <line x1="13.959973" y1="143.400054" x2="55.4378944" y2="143.400054" id="路径-167" stroke="#000000" stroke-width="4"></line>
                    <line x1="53.9589835" y1="187.251987" x2="53.9589835" y2="159.347663" id="路径-168" stroke="#000000" stroke-width="4"></line>
                    <line x1="53.9589835" y1="92.9106962" x2="53.9589835" y2="126.202726" id="路径-169" stroke="#000000" stroke-width="4"></line>
                    <line x1="53.9589835" y1="30.9106962" x2="53.9589835" y2="60.7647783" id="路径-169备份" stroke="#000000" stroke-width="4"></line>
                    <line x1="2.06141045" y1="75.2241986" x2="53.9589835" y2="75.2241986" id="路径-170" stroke="#000000" stroke-width="4"></line>
                    <line x1="22.6464528" y1="30.5030129" x2="61.3592395" y2="30.5030129" id="路径-171" stroke="#000000" stroke-width="4"></line>
                    <line x1="89.7142693" y1="30.5030129" x2="103.281479" y2="30.5030129" id="路径-172" stroke="#000000" stroke-width="4"></line>
                    <polyline id="路径-173" stroke="#000000" stroke-width="4" points="72.4028717 157.2614 72.4028717 134.389418 122.027541 134.389418"></polyline>
                    <line x1="122.027541" y1="129.326184" x2="122.027541" y2="142.272136" id="路径-174" stroke="#000000" stroke-width="4"></line>
                    <line x1="122.027541" y1="184.890108" x2="79.481299" y2="184.890108" id="路径-175" stroke="#000000" stroke-width="4"></line>
                    <line x1="80.6373095" y1="202.96017" x2="80.6373095" y2="212.540377" id="路径-176" stroke="#000000" stroke-width="4"></line>
                    <line x1="122.474215" y1="176.710151" x2="122.474215" y2="189.074398" id="路径-177" stroke="#000000" stroke-width="4"></line>
                </g>
                <path d="M20.4793389,28.553 L0.00592849357,28.5531495 L0.00592849357,138.367882 L11.5693389,138.367 L11.5693389,147.594 L0.00592849357,147.594787 L0.00592849357,188.310251 L51.9083389,188.31 L51.9093351,213.066841 L124.46704,213.066841 L124.466339,186.897 L149.278,186.897 L149.278,100.741 L124.466339,100.741 L124.46704,28.5531495 L104.228339,28.553 L104.228664,9.09494702e-13 L149.278395,0 L149.278,100.741 L149.319455,100.741763 L149.319455,186.89779 L149.278,186.897 L149.278395,213.236611 L0,213.236611 L0,0 L20.4800861,9.09494702e-13 L20.4793389,28.553 Z" id="形状结合" fill="#FFFFFF" fill-rule="nonzero"></path>
            </g>
        </g>
    </g>
</svg>